<?xml version="1.0" encoding="utf-8"?>
<!-- Generator: Adobe Illustrator 24.2.1, SVG Export Plug-In . SVG Version: 6.00 Build 0)  -->
<svg version="1.1" id="Layer_1" xmlns="http://www.w3.org/2000/svg" xmlns:xlink="http://www.w3.org/1999/xlink" x="0px" y="0px"
	 viewBox="0 0 518 452" style="enable-background:new 0 0 518 452;" xml:space="preserve">
<style type="text/css">
	.st0{opacity:0.2;fill:#DB8730;}
	.st1{fill:#FFD576;}
	.st2{fill:none;stroke:#535461;stroke-width:2;stroke-miterlimit:10;}
	.st3{fill:#F50000;}
	.st4{fill:url(#SVGID_1_);}
	.st5{fill:#080C1D;}
	.st6{fill:#F7C4A7;}
	.st7{opacity:0.1;enable-background:new    ;}
	.st8{fill:#1F2430;}
	.st9{opacity:0.1;}
	.st10{fill:#30230F;}
	.st11{fill:#535461;}
	.st12{fill:#FFFFFF;}
	.st13{fill:none;stroke:#000000;stroke-miterlimit:10;}
	.st14{opacity:0.39;fill:#FFD576;enable-background:new    ;}
	.st15{fill:#D6D6E3;}
</style>
<path class="st0" d="M468.6,162.5h-29.8V178h29.8V162.5z"/>
<path class="st0" d="M470.9,181.4h-29.8v15.5h29.8V181.4z"/>
<path class="st0" d="M446.2,50.1h-29.8v15.5h29.8V50.1z"/>
<path class="st0" d="M467.4,67.9h-29.8v15.5h29.8V67.9z"/>
<path class="st0" d="M410.1,51.2h-29.8v15.5h29.8V51.2z"/>
<path class="st0" d="M505.9,85.6H476v15.5h29.8V85.6z"/>
<path class="st0" d="M469.7,86.8h-29.8v15.5h29.8V86.8z"/>
<path class="st0" d="M431.3,69h-29.8v15.5h29.8V69z"/>
<path class="st0" d="M504.1,204.9h-29.8v15.5h29.8V204.9z"/>
<path class="st0" d="M468,206.1h-29.8v15.5H468V206.1z"/>
<path class="st1" d="M75.9,158.5c0,0,42,42,18.3,104.4s40.7,166.1,40.7,166.1s-0.7-0.1-2-0.3c-86.3-15.2-129.2-114-81.2-187.3
	C69.5,214,84.1,182.1,75.9,158.5z"/>
<path class="st2" d="M75.9,158.5c0,0,23.7,51.5,0,93.5s-4.1,160,59,176.9"/>
<path class="st3" d="M1,328.4c0,0,48-7.6,52.3,35.3s92.2,48.9,92.2,48.9s-0.6,0.4-1.6,1.1C71.4,461.4,2,444.1,12.5,380.9
	C16.4,357.4,16,333.8,1,328.4z"/>
<path class="st1" d="M1,328.4c0,0,48-7.6,52.3,35.3s92.2,48.9,92.2,48.9s-0.6,0.4-1.6,1.1C71.4,461.4,2,444.1,12.5,380.9
	C16.4,357.4,16,333.8,1,328.4z"/>
<path class="st2" d="M1,328.4c0,0,37.2,8.2,34.2,42s55.3,74.4,110.4,42.3"/>
<path class="st0" d="M31.1,163.1H1.2v15.5h29.8V163.1z"/>
<path class="st0" d="M52.3,180.8H22.5v15.5h29.8V180.8z"/>
<path class="st0" d="M213.4,0.2h-29.8v15.5h29.8V0.2z"/>
<path class="st0" d="M448.5,285.8h-29.8v15.5h29.8V285.8z"/>
<path class="st0" d="M54.6,199.8H24.8v15.5h29.8V199.8z"/>
<path class="st0" d="M234.6,18h-29.8v15.5h29.8V18z"/>
<path class="st0" d="M125.7,122.9H95.9v15.5h29.8V122.9z"/>
<path class="st0" d="M146.9,140.7h-29.8v15.5h29.8V140.7z"/>
<path class="st0" d="M203.7,130.9h-29.8v15.5h29.8V130.9z"/>
<path class="st0" d="M149.2,159.6h-29.8v15.5h29.8V159.6z"/>
<path class="st0" d="M488.7,285.8h-29.8v15.5h29.8V285.8z"/>
<linearGradient id="SVGID_1_" gradientUnits="userSpaceOnUse" x1="265.592" y1="112.8709" x2="265.592" y2="423.9169" gradientTransform="matrix(1 0 0 -1 0 451.0709)">
	<stop  offset="0" style="stop-color:#808080;stop-opacity:0.251"/>
	<stop  offset="0.54" style="stop-color:#808080;stop-opacity:0.122"/>
	<stop  offset="1" style="stop-color:#808080;stop-opacity:0.102"/>
</linearGradient>
<path class="st4" d="M414.1,224.5c-1.9-10.7-3.1-21.6-3.5-32.5c-0.4-9-3.5-17.6-9-24.8c-5.5-7.1-13-12.4-21.6-15
	c-3.1-1-6.6-1.9-10.4-2.7c-33.4-7.1-43.5-0.9-44.7-0.1c-1-1.8-1.8-3.6-2.5-5.5c-0.1-0.2-0.1-0.4-0.2-0.6c6.6-7,10.6-16.1,11.4-25.7
	c5.6-5.6,8.8-12.5,8.8-19.8c-0.1-6.4-2.4-12.5-6.6-17.3v-10c0-11.5-4.6-22.5-12.7-30.6c-8.1-8.1-19.1-12.7-30.6-12.7h-3.5
	c-11.5,0-22.5,4.6-30.6,12.7c-8.1,8.1-12.7,19.1-12.7,30.6v10.7c-3.8,4.7-5.9,10.5-6,16.6c0,7.2,3.1,13.9,8.5,19.4
	c0.7,10,4.9,19.4,11.9,26.6c0.2,1.6,0.5,3.4,0.7,5.2L201,161.6c0,0-23,0.9-37.8,31.5c-12.5,25.9-37.5,92.5-44.9,112.3
	c-1.3,3.6-2.1,5.6-2.1,5.6s0.2-0.2,0.7-0.7l-0.7,1.9c0,0,0.4-0.4,1-1c-1,8.3-1.2,22.5,9.7,24.3c9.1,1.5,32.6,2.1,50.3,2.3h1.2
	c11.7,0.2,20.7,0.2,20.7,0.2v-0.1h190.6v-2c0-1.8-0.4-3.5-1-5.2l0.3-0.3c1,1.3,1.7,2.9,2,4.6c0,0.2-0.1,0.3-0.1,0.5l0.1-0.3
	c0,0.5,0,1-0.1,1.6c0,0,24.5-63,24.2-100.6C415.1,232.3,414.8,228.4,414.1,224.5z M261.7,157.5c-0.3-1.8-0.5-3.6-0.6-5.4V152
	C261.3,153.8,261.5,155.6,261.7,157.5z M187.6,292.9v15l-9.4,2L187.6,292.9z"/>
<path class="st5" d="M289.7,33.2c11.5,0,22.5,4.6,30.6,12.7c8.1,8.1,12.7,19.1,12.7,30.6V95h-86.7V76.5c0-11.5,4.6-22.5,12.7-30.6
	C267.2,37.8,278.2,33.2,289.7,33.2z"/>
<path class="st5" d="M290,135c27.3,0,49.4-15.2,49.4-33.9c0-18.7-22.1-33.9-49.4-33.9s-49.4,15.2-49.4,33.9
	C240.6,119.8,262.7,135,290,135z"/>
<path class="st6" d="M258.4,134c0,0,10.3,53.9,0,68.5c-10.3,14.5,31.5,20.3,31.5,20.3l43.3-15.8l6.1-38.8c0,0-26.4-14.9-20.9-44.9
	L258.4,134z"/>
<path class="st6" d="M386.2,315.8c0,0,2.7,11.8-12.1,13.9c-8.8,1.3-17.7,1.2-26.4-0.3l-3.3-29.7H379L386.2,315.8z"/>
<path class="st6" d="M124,300.7c0,0-6.6,26.7,8.3,29.1c14.9,2.4,69.4,2.4,69.4,2.4v-31.5l-24.7,5.3l-23.2-22.2L124,300.7z"/>
<path class="st7" d="M261.5,151.4l-58,12.3c0,0-22.1,0.9-36.4,30.3S122,307.3,122,307.3s26.4-26.7,57.3,1.8l20.6-37.3l-4.5,59.1H355
	v-27.9c0,0,33.3,17.9,30.9,27.9c0,0,28.5-73.5,22.4-106.9c-1.9-10.3-3-20.8-3.4-31.3c-0.4-8.6-3.4-16.9-8.7-23.8
	s-12.5-11.9-20.8-14.4c-3-0.9-6.3-1.8-10-2.6c-34.2-7.3-43,0-43,0s-6.6,21.6-6.5,31.4c0.1,12.6-17.9,20.9-17.9,20.9
	s-26.7-6.4-27.9-11.5C269,187.6,259.4,157.5,261.5,151.4z"/>
<path class="st8" d="M261.5,150.2l-58,12.3c0,0-22.1,0.9-36.4,30.3S122,306.1,122,306.1s26.4-26.7,57.3,1.8l20.6-37.3l-4.5,59.1H355
	v-27.9c0,0,33.3,17.9,30.9,27.9c0,0,28.5-73.5,22.4-106.9c-1.9-10.3-3-20.8-3.4-31.3c-0.4-8.6-3.4-16.9-8.7-23.8
	s-12.5-11.9-20.8-14.4c-3-0.9-6.3-1.8-10-2.6c-34.2-7.3-43,0-43,0s-6.6,21.6-6.5,31.4c0.1,12.6-17.9,20.9-17.9,20.9
	s-26.7-6.4-27.9-11.5C269,186.4,259.4,156.3,261.5,150.2z"/>
<path class="st7" d="M320.9,147.6c-2.4-6.9-3-14.3-1.6-21.5l-60,10.6c0,0,0.9,4.5,1.8,11.3c3.9,4,8.5,7.2,13.7,9.4
	c5.2,2.2,10.7,3.3,16.3,3.2c5.6,0,11.1-1.2,16.2-3.5C312.4,155,317,151.7,320.9,147.6L320.9,147.6z"/>
<path class="st6" d="M331.1,116.7c0.1,5.4-0.9,10.8-2.9,15.8c-2,5-5,9.6-8.8,13.5c-3.8,3.9-8.3,7-13.3,9.1c-5,2.1-10.3,3.3-15.7,3.3
	c-5.4,0.1-10.8-0.9-15.8-2.9c-5-2-9.6-5-13.5-8.8c-3.9-3.8-7-8.3-9.1-13.3c-2.1-5-3.3-10.3-3.3-15.7c0-0.3,0-0.7,0-1
	c0-6,1.3-11.9,3.8-17.4c2.5-5.4,6.2-10.3,10.8-14.1c4.6-3.9,10-6.7,15.7-8.3c5.8-1.6,11.9-1.9,17.8-0.9c9.1,1.6,17.5,6.1,23.7,13
	c6.2,6.9,9.9,15.6,10.5,24.9C331,114.9,331.1,115.8,331.1,116.7z"/>
<g class="st9">
	<path class="st7" d="M275.5,79L275.5,79c-7.8,2.9-14.7,8.2-19.5,15.1c-4.8,6.9-7.4,15.1-7.4,23.6c0,0.3,0,0.7,0,1
		c1.3,0,2.5-0.3,3.7-0.9c10-4.7,16.1-19,18.4-29C271.7,85.1,272.5,81.1,275.5,79z"/>
	<path class="st7" d="M307.1,80.2c-3.3-1.5-6.7-2.6-10.2-3.2c2.9,0.7,5.5,2.3,7.4,4.6c0.9,1.2,1.7,2.6,2.3,4
		c-5.5-2.4-11.4-3.6-17.4-3.5s-11.9,1.5-17.3,4.2c2.6,5.7,10.6,8.8,16,10.8c5.9,2.3,11.8,4.3,17.8,6.2l-5.3-4.3l12,1.9
		c0.1-2.4-0.2-4.8-0.8-7.1c2.3,1.8,5.3,2.5,7.8,4c4.7,2.9,6.6,8.6,9.1,13.5c0.6,1.3,1.5,2.5,2.7,3.4c-0.5-7.4-3-14.5-7.2-20.7
		C319.6,88.1,313.8,83.3,307.1,80.2z"/>
</g>
<path class="st10" d="M275.5,78.1L275.5,78.1c-7.8,2.9-14.7,8.2-19.5,15.1c-4.8,6.9-7.4,15.1-7.4,23.6c0,0.3,0,0.7,0,1
	c1.3,0,2.5-0.3,3.7-0.9c10-4.7,16.1-19,18.4-29C271.7,84.2,272.5,80.2,275.5,78.1z"/>
<path class="st10" d="M307.1,79.2c-3.3-1.5-6.7-2.6-10.2-3.2c2.9,0.7,5.5,2.3,7.4,4.6c0.9,1.2,1.7,2.6,2.3,4
	c-5.5-2.4-11.4-3.6-17.4-3.5c-6,0.1-11.9,1.5-17.3,4.2c2.6,5.7,10.6,8.8,16,10.8c5.9,2.3,11.8,4.3,17.8,6.2l-5.3-4.3l12,1.9
	c0.1-2.4-0.2-4.8-0.8-7.1c2.3,1.8,5.3,2.5,7.8,4c4.7,2.9,6.6,8.6,9.1,13.5c0.6,1.3,1.5,2.5,2.7,3.4c-0.5-7.4-3-14.5-7.2-20.7
	C319.6,87.2,313.8,82.3,307.1,79.2z"/>
<path class="st7" d="M244,109.9c0,0,42.4-52.8,91.5,0l-4.2-11.8c0,0-23-33.6-39.4-26.4c-16.4,7.3-32.4,12.4-32.4,12.4L244,109.9z"/>
<path class="st5" d="M244,109c0,0,42.4-52.8,91.5,0l-4.2-11.8c0,0-23-33.6-39.4-26.4c-16.4,7.3-32.4,12.4-32.4,12.4L244,109z"/>
<path class="st7" d="M209.1,222.6c0,0-9.1,24.2,3.6,46.1s-11.2,30.9-11.2,30.9"/>
<path class="st11" d="M195.2,317.5h175.2c3.9,0,7.6,1.5,10.3,4.3c2.7,2.7,4.3,6.4,4.3,10.3H180.6c0-3.9,1.5-7.6,4.3-10.3
	C187.6,319,191.3,317.5,195.2,317.5z"/>
<path class="st11" d="M213,217.5h139.5c5.9,0,11.6,2.4,15.8,6.6s6.5,9.9,6.5,15.8v81H190.6v-81c0-2.9,0.6-5.8,1.7-8.6
	c1.1-2.7,2.8-5.2,4.8-7.3c2.1-2.1,4.5-3.7,7.3-4.8C207.1,218,210.1,217.5,213,217.5z"/>
<path class="st12" d="M282.6,284.6c6,0,10.9-4.9,10.9-10.9s-4.9-10.9-10.9-10.9c-6,0-10.9,4.9-10.9,10.9S276.6,284.6,282.6,284.6z"
	/>
<g class="st9">
	<path class="st5" d="M246.4,85.2c0,0,41.7-41.7,86.7-0.8L246.4,85.2z"/>
	<path class="st13" d="M246.4,85.2c0,0,41.7-41.7,86.7-0.8"/>
</g>
<path class="st14" d="M343.6,82.5h-4.2v23.7h4.2V82.5z"/>
<path class="st1" d="M333.8,97.9c3.8,0,7.5,1.5,10.2,4.2c2.7,2.7,4.2,6.4,4.2,10.2v0.9c0,3.8-1.5,7.5-4.2,10.2
	c-2.7,2.7-6.4,4.2-10.2,4.2V97.9z"/>
<path class="st14" d="M337.5,99.7c0-1.8-1.5-3.3-3.3-3.3S331,98,331,99.7v26.1c0,1.8,1.5,3.3,3.3,3.3s3.3-1.5,3.3-3.3V99.7z"/>
<path class="st14" d="M235.4,106.7h4.2V83h-4.2V106.7z"/>
<path class="st1" d="M245.2,128.1c-3.8,0-7.5-1.5-10.2-4.2c-2.7-2.7-4.2-6.4-4.2-10.2v-0.9c0-1.9,0.4-3.8,1.1-5.5
	c0.7-1.8,1.8-3.3,3.1-4.7c1.3-1.3,2.9-2.4,4.7-3.1c1.8-0.7,3.6-1.1,5.5-1.1l0,0V128.1z"/>
<path class="st14" d="M241.5,126.3c0,1.8,1.5,3.3,3.3,3.3s3.3-1.5,3.3-3.3v-26.1c0-1.8-1.5-3.3-3.3-3.3s-3.3,1.5-3.3,3.3V126.3z"/>
<path class="st1" d="M338.9,57.2c-5.7-11.8-18-26-44.6-27.2v0h-0.3l-9.4,0.4v0c-26.4,1.2-38.7,15.4-44.4,27.2
	c-3.8,8-5.8,16.7-5.9,25.5l3.3-0.1l3.3-0.1c0.1-7.8,1.9-15.6,5.3-22.7c7.2-14.7,20.4-22.6,39.3-23.3l8.3-0.5
	c18.9,0.7,32.1,8.6,39.3,23.3c3.4,7.1,5.2,14.8,5.3,22.7l3.3,0.1l3.3,0.1C344.7,73.8,342.7,65.1,338.9,57.2L338.9,57.2z"/>
<path class="st15" d="M487.7,332.2H43.5v119.3h444.2V332.2z"/>
<path class="st7" d="M487.7,340.2H43.5v15.5h444.2V340.2z"/>
<path class="st15" d="M517.5,330.5H13.7V346h503.8V330.5z"/>
</svg>
