<?xml version="1.0" encoding="utf-8"?>
<!-- Generator: Adobe Illustrator 24.2.1, SVG Export Plug-In . SVG Version: 6.00 Build 0)  -->
<svg version="1.1" id="Layer_1" xmlns="http://www.w3.org/2000/svg" xmlns:xlink="http://www.w3.org/1999/xlink" x="0px" y="0px"
	 viewBox="0 0 70 70" style="enable-background:new 0 0 70 70;" xml:space="preserve">
<style type="text/css">
	.st0{fill:#0ACF83;}
	.st1{fill:#A259FF;}
	.st2{fill:#F24E1E;}
	.st3{fill:#FF7262;}
	.st4{fill:#1ABCFE;}
</style>
<g>
	<path class="st0" d="M23.3,70C29.8,70,35,64.8,35,58.3V46.7H23.3c-6.4,0-11.7,5.2-11.7,11.7S16.9,70,23.3,70z"/>
	<path class="st1" d="M11.7,35c0-6.4,5.2-11.7,11.7-11.7H35v23.3H23.3C16.9,46.7,11.7,41.4,11.7,35z"/>
	<path class="st2" d="M11.7,11.7C11.7,5.2,16.9,0,23.3,0H35v23.3H23.3C16.9,23.3,11.7,18.1,11.7,11.7z"/>
	<path class="st3" d="M35,0h11.7c6.4,0,11.7,5.2,11.7,11.7s-5.2,11.7-11.7,11.7H35V0z"/>
	<path class="st4" d="M58.3,35c0,6.4-5.2,11.7-11.7,11.7S35,41.4,35,35s5.2-11.7,11.7-11.7S58.3,28.6,58.3,35z"/>
</g>
</svg>
