<?xml version="1.0" encoding="utf-8"?>
<!-- Generator: Adobe Illustrator 24.2.1, SVG Export Plug-In . SVG Version: 6.00 Build 0)  -->
<svg version="1.1" id="Layer_1" xmlns="http://www.w3.org/2000/svg" xmlns:xlink="http://www.w3.org/1999/xlink" x="0px" y="0px"
	 viewBox="0 0 70 70" style="enable-background:new 0 0 70 70;" xml:space="preserve">
<style type="text/css">
	.st0{fill:#F0DB4F;}
	.st1{fill:#323330;}
</style>
<g id="_x31_87-js">
	<g>
		<rect class="st0" width="70" height="70"/>
		<path class="st1" d="M38.1,54.6c0,6.8-4,9.9-9.8,9.9c-5.3,0-8.3-2.7-9.9-6l5.4-3.2c1,1.8,2,3.4,4.2,3.4c2.2,0,3.5-0.8,3.5-4.1
			V32.1h6.6V54.6L38.1,54.6z"/>
		<path class="st1" d="M53.7,64.5c-6.1,0-10.1-2.9-12-6.7l5.4-3.1c1.4,2.3,3.2,4,6.5,4c2.7,0,4.5-1.4,4.5-3.2c0-2.3-1.8-3-4.8-4.4
			l-1.6-0.7c-4.7-2-7.9-4.6-7.9-9.9c0-4.9,3.8-8.7,9.6-8.7c4.2,0,7.2,1.5,9.3,5.3l-5.1,3.3c-1.1-2-2.3-2.8-4.2-2.8
			c-1.9,0-3.1,1.2-3.1,2.8c0,2,1.2,2.8,4,4l1.6,0.7c5.6,2.4,8.7,4.8,8.7,10.3C64.5,61.3,59.9,64.5,53.7,64.5L53.7,64.5z"/>
	</g>
</g>
<g id="Layer_1_1_">
</g>
</svg>
