<?xml version="1.0" encoding="utf-8"?>
<!-- Generator: Adobe Illustrator 24.2.1, SVG Export Plug-In . SVG Version: 6.00 Build 0)  -->
<svg version="1.1" id="Layer_1" xmlns="http://www.w3.org/2000/svg" xmlns:xlink="http://www.w3.org/1999/xlink" x="0px" y="0px"
	 viewBox="0 0 70 70" style="enable-background:new 0 0 70 70;" xml:space="preserve">
<style type="text/css">
	.st0{fill:#00C58E;}
	.st1{fill:#FFFFFF;}
	.st2{fill:#108775;}
</style>
<g transform="translate(0 50)">
	<path class="st0" d="M40-27l-2.4,4.2l-8.2-14.5L4.2,7.2h17.1c0,2.3,1.9,4.2,4.2,4.2H4.2c-1.5,0-2.9-0.8-3.6-2.1
		c-0.7-1.3-0.7-2.9,0-4.2l25.2-44.4c0.7-1.3,2.1-2.1,3.6-2.1s2.9,0.8,3.6,2.1L40-27z"/>
	<path class="st1" d="M58.2,5.1L42.4-22.7L40-27l-2.4,4.2L21.8,5.1C21,6.4,21,8,21.8,9.3c0.7,1.3,2.1,2.1,3.6,2.1h29.2
		c1.5,0,2.9-0.8,3.6-2.1S58.9,6.4,58.2,5.1L58.2,5.1z M25.4,7.2L40-18.5L54.5,7.2H25.4L25.4,7.2z"/>
	<path class="st2" d="M69.4,9.3c-0.7,1.3-2.1,2.1-3.6,2.1H54.5c2.3,0,4.2-1.9,4.2-4.2h7.1L45.6-28.4l-3.2,5.7L40-27l2-3.6
		c0.7-1.3,2.1-2.1,3.6-2.1c1.5,0,2.9,0.8,3.6,2.1L69.4,5.1C70.2,6.4,70.2,8,69.4,9.3z"/>
</g>
</svg>
