<?xml version="1.0" encoding="utf-8"?>
<!-- Generator: Adobe Illustrator 24.2.1, SVG Export Plug-In . SVG Version: 6.00 Build 0)  -->
<svg version="1.1" id="Layer_1" xmlns="http://www.w3.org/2000/svg" xmlns:xlink="http://www.w3.org/1999/xlink" x="0px" y="0px"
	 viewBox="0 0 124 77.7" style="enable-background:new 0 0 124 77.7;" xml:space="preserve">
<style type="text/css">
	.st0{fill:#FFFFFF;}
</style>
<g>
	<path class="st0" d="M34.7,63.3c1.7,0,3.2-0.1,4.7-0.5c1.5-0.3,2.8-0.8,4-1.6c1.1-0.7,2.1-1.8,2.7-3c0.7-1.3,1-2.9,1-4.9
		c0-3.9-1.1-6.7-3.3-8.4c-2.2-1.7-5.1-2.5-8.8-2.5H16.8v21H34.7L34.7,63.3z M33.8,30.8c3,0,5.4-0.7,7.4-2.1c1.9-1.4,2.9-3.7,2.9-6.9
		c0-1.8-0.3-3.2-0.9-4.4c-0.6-1.1-1.5-2-2.6-2.7c-1.1-0.6-2.3-1.1-3.7-1.3C35.4,13.1,34,13,32.5,13H16.8v17.8H33.8L33.8,30.8z M36,0
		c3.6,0,6.9,0.3,9.9,1c3,0.6,5.5,1.7,7.7,3.1c2.1,1.5,3.8,3.4,5,5.8c1.2,2.4,1.7,5.4,1.7,8.9c0,3.8-0.9,7-2.6,9.6
		c-1.8,2.6-4.3,4.7-7.8,6.3c4.7,1.3,8.2,3.7,10.5,7.1c2.3,3.4,3.4,7.5,3.4,12.2c0,3.9-0.7,7.2-2.2,10c-1.5,2.8-3.5,5.1-6,6.9
		c-2.5,1.8-5.4,3.1-8.7,4c-3.2,0.9-6.6,1.3-10,1.3H0V0H36L36,0z"/>
	<path class="st0" d="M105.2,34c-1.8-2-4.9-3.1-8.6-3.1c-2.4,0-4.4,0.4-6,1.2c-1.6,0.8-2.9,1.8-3.8,3c-1,1.2-1.6,2.5-2,3.9
		c-0.4,1.3-0.6,2.6-0.7,3.6h24.7C108.4,38.9,107,36,105.2,34L105.2,34z M87.8,63c2.3,2.2,5.6,3.3,9.8,3.3c3.1,0,5.7-0.8,7.9-2.3
		c2.2-1.5,3.5-3.2,4.1-4.9h13.4c-2.1,6.6-5.4,11.4-9.9,14.2c-4.4,2.9-9.7,4.3-16,4.3c-4.4,0-8.3-0.7-11.8-2.1
		c-3.5-1.4-6.4-3.4-8.9-5.9c-2.4-2.6-4.3-5.6-5.6-9.2c-1.3-3.6-2-7.5-2-11.8c0-4.1,0.7-8,2-11.6c1.4-3.6,3.3-6.7,5.8-9.3
		c2.5-2.6,5.5-4.7,8.9-6.2c3.5-1.5,7.3-2.2,11.5-2.2c4.7,0,8.8,0.9,12.3,2.7c3.5,1.8,6.4,4.3,8.6,7.3c2.3,3.1,3.9,6.6,4.9,10.5
		c1,3.9,1.3,8,1.1,12.3H84C84,56.7,85.5,60.8,87.8,63L87.8,63z"/>
	<path class="st0" d="M80.9,5.1h30.9v7.5H80.9V5.1z"/>
</g>
</svg>
