<?xml version="1.0" encoding="utf-8"?>
<!-- Generator: Adobe Illustrator 24.2.1, SVG Export Plug-In . SVG Version: 6.00 Build 0)  -->
<svg version="1.1" id="Layer_1" xmlns="http://www.w3.org/2000/svg" xmlns:xlink="http://www.w3.org/1999/xlink" x="0px" y="0px"
	 viewBox="0 0 124 120.7" style="enable-background:new 0 0 124 120.7;" xml:space="preserve">
<style type="text/css">
	.st0{fill:#FFFFFF;}
</style>
<g>
	<path class="st0" d="M61.9,0C27.7,0,0,27.7,0,61.9c0,27.3,17.7,50.5,42.3,58.7c3.1,0.6,4.2-1.3,4.2-3c0-1.5-0.1-6.3-0.1-11.5
		c-17.2,3.7-20.8-7.3-20.8-7.3c-2.8-7.1-6.9-9.1-6.9-9.1c-5.6-3.8,0.4-3.8,0.4-3.8c6.2,0.4,9.5,6.4,9.5,6.4c5.5,9.5,14.5,6.7,18,5.1
		c0.6-4,2.2-6.7,3.9-8.3c-13.7-1.6-28.2-6.9-28.2-30.6c0-6.8,2.4-12.3,6.4-16.6c-0.6-1.6-2.8-7.8,0.6-16.4c0,0,5.2-1.7,17,6.3
		c4.9-1.4,10.2-2.1,15.5-2.1c5.3,0,10.6,0.7,15.5,2.1c11.8-8,17-6.3,17-6.3c3.4,8.5,1.2,14.8,0.6,16.4c4,4.3,6.4,9.8,6.4,16.6
		c0,23.8-14.5,29-28.2,30.5c2.2,1.9,4.2,5.7,4.2,11.5c0,8.3-0.1,14.9-0.1,17c0,1.6,1.1,3.6,4.2,3c24.6-8.2,42.3-31.4,42.3-58.7
		C123.7,27.7,96,0,61.9,0z M23.2,88.1c-0.1,0.3-0.6,0.4-1.1,0.2c-0.4-0.2-0.7-0.6-0.6-0.9c0.1-0.3,0.6-0.4,1.1-0.2
		C23.1,87.4,23.3,87.8,23.2,88.1z M26.2,90.8c-0.3,0.3-0.9,0.1-1.3-0.3c-0.4-0.4-0.5-1-0.2-1.3c0.3-0.3,0.9-0.1,1.3,0.3
		C26.4,90,26.5,90.5,26.2,90.8z M28.3,94.3c-0.4,0.3-1,0-1.4-0.5c-0.4-0.6-0.4-1.2,0-1.5c0.4-0.3,1,0,1.4,0.5
		C28.7,93.4,28.7,94,28.3,94.3z M31.8,98.3c-0.3,0.4-1.1,0.3-1.6-0.2c-0.5-0.5-0.7-1.2-0.4-1.6c0.3-0.4,1.1-0.3,1.6,0.2
		C32,97.2,32.2,98,31.8,98.3z M36.4,99.7c-0.1,0.5-0.8,0.7-1.5,0.5c-0.7-0.2-1.2-0.8-1-1.3c0.1-0.5,0.8-0.7,1.5-0.5
		C36.1,98.6,36.5,99.2,36.4,99.7z M41.6,100.3c0,0.5-0.6,0.9-1.3,0.9c-0.7,0-1.3-0.4-1.3-0.9c0-0.5,0.6-0.9,1.3-0.9
		C41,99.3,41.6,99.7,41.6,100.3z M46.7,100.1c0.1,0.5-0.4,1-1.2,1.1c-0.7,0.1-1.4-0.2-1.5-0.7c-0.1-0.5,0.4-1,1.1-1.2
		C45.9,99.3,46.6,99.6,46.7,100.1z"/>
</g>
</svg>
