<svg id="Layer_1" data-name="Layer 1" xmlns="http://www.w3.org/2000/svg" viewBox="0 0 659.27 58.72"><defs><style>.cls-1{fill:#fff;}.cls-2{fill:#ffd576;}</style></defs><path class="cls-1" d="M2669,1347.9h13.06c17.37,0,25.63,11,25.63,28.13s-8.26,28.53-25.54,28.53H2669Zm12.66,53.29c15.26,0,21.87-10.38,21.87-25.16s-6.61-24.76-21.87-24.76H2673v49.92Z" transform="translate(-2669.01 -1346.87)"/><path class="cls-1" d="M2722.39,1347.9h16.18c11.25,0,18.65,4.13,18.65,15,0,10.32-7.4,15.68-18.65,15.68h-12.19v26h-4Zm15.15,27.31c10,0,15.59-4,15.59-12.34,0-8.52-5.57-11.63-15.59-11.63h-11.16v24Zm3.93,1,16.82,28.33h-4.6l-16-27.18Z" transform="translate(-2669.01 -1346.87)"/><path class="cls-1" d="M2768.53,1376c0-18,8.81-29.16,21.16-29.16s21.17,11.19,21.17,29.16-8.82,29.56-21.17,29.56S2768.53,1394.08,2768.53,1376Zm38.17,0c0-15.75-6.87-25.55-17-25.55s-17,9.8-17,25.55,6.86,26,17,26S2806.7,1391.86,2806.7,1376Z" transform="translate(-2669.01 -1346.87)"/><path class="cls-1" d="M2825.32,1347.9h14.36c11.65,0,18.53,4.31,18.53,13.76,0,5.9-3.3,10.64-10,12.36v.34c8.38,1.23,13.51,5.82,13.51,13.69,0,10.9-7.85,16.51-20.93,16.51h-15.46Zm12.78,24.86c11.64,0,16.19-3.72,16.19-10.94,0-7.54-5.09-10.53-15.72-10.53h-9.31v21.47Zm1.65,28.41c11.51,0,18-4,18-13.09,0-8.15-6.46-11.93-18-11.93h-10.49v25Z" transform="translate(-2669.01 -1346.87)"/><path class="cls-1" d="M2875,1347.9h4.21l22.07,40.06,6,11.19h.17c-.13-5.46-.5-11-.5-16.44V1347.9h3.74v56.66h-4.21l-22.07-40.06-6-11.2h-.17c.13,5.52.5,10.66.5,16.13v35.13H2875Z" transform="translate(-2669.01 -1346.87)"/><path class="cls-1" d="M2942.47,1347.9h4l19.95,56.66h-4.24l-11.28-33.35c-2.29-6.72-4.31-12.66-6.28-19.57h-.34c-2,6.91-4,12.85-6.28,19.57l-11.45,33.35h-4Zm-10.82,33.89H2957v3.34h-25.38Z" transform="translate(-2669.01 -1346.87)"/><path class="cls-1" d="M2980.17,1347.9h4v31.46h.19l28-31.46H3017L2984.16,1385v19.54h-4Zm14.61,21.93,2.57-3.17,22,37.9h-4.6Z" transform="translate(-2669.01 -1346.87)"/><path class="cls-2" d="M3079.5,1348.52H3095c16.25,0,26.94,8.51,26.94,27.76s-10.69,28.28-26.23,28.28H3079.5Zm14.77,45.82c8.72,0,14.65-4.65,14.65-18.06s-5.93-17.54-14.65-17.54h-2.09v35.6Z" transform="translate(-2669.01 -1346.87)"/><path class="cls-2" d="M3143.23,1348.52h15.2l17.45,56h-13.45l-7.23-28.37c-1.42-5.6-3.12-12.16-4.47-18.07h-.35c-1.37,5.91-2.92,12.47-4.34,18.07l-7.29,28.37h-13Zm-5.91,32.83h26.82v9.88h-26.82Z" transform="translate(-2669.01 -1346.87)"/><path class="cls-2" d="M3177.88,1348.52h13.44l6.74,26.1c1.66,6.12,2.79,11.79,4.48,18h.35c1.69-6.16,2.9-11.83,4.48-18l6.61-26.1h13l-16.89,56h-15.25Z" transform="translate(-2669.01 -1346.87)"/><path class="cls-2" d="M3234.58,1393.92h13.09v-34.76h-13.09v-10.64h38.86v10.64h-13.09v34.76h13.09v10.64h-38.86Z" transform="translate(-2669.01 -1346.87)"/><path class="cls-2" d="M3285.86,1348.52h15.48c16.25,0,26.94,8.51,26.94,27.76s-10.69,28.28-26.23,28.28h-16.19Zm14.78,45.82c8.71,0,14.64-4.65,14.64-18.06s-5.93-17.54-14.64-17.54h-2.1v35.6Z" transform="translate(-2669.01 -1346.87)"/></svg>