<?xml version="1.0" encoding="utf-8"?>
<!-- Generator: Adobe Illustrator 24.2.1, SVG Export Plug-In . SVG Version: 6.00 Build 0)  -->
<svg version="1.1" id="Layer_1" xmlns="http://www.w3.org/2000/svg" xmlns:xlink="http://www.w3.org/1999/xlink" x="0px" y="0px"
	 viewBox="0 0 70 70" style="enable-background:new 0 0 70 70;" xml:space="preserve">
<style type="text/css">
	.st0{fill:url(#SVGID_1_);}
	.st1{fill:#6181B6;}
	.st2{fill:#FFFFFF;}
	.st3{fill:#000004;}
</style>
<g>
	
		<radialGradient id="SVGID_1_" cx="-18.711" cy="148.9161" r="98.7902" gradientTransform="matrix(0.463 0 0 -0.463 29.7454 92.0755)" gradientUnits="userSpaceOnUse">
		<stop  offset="0" style="stop-color:#FFFFFF"/>
		<stop  offset="0.5" style="stop-color:#4C6B97"/>
		<stop  offset="1" style="stop-color:#231F20"/>
	</radialGradient>
	<ellipse class="st0" cx="35" cy="35" rx="34.8" ry="18.3"/>
	<ellipse class="st1" cx="35" cy="35" rx="33.5" ry="17"/>
	<g>
		<path class="st2" d="M41.8,40.5l1.7-8.5c0.4-1.9,0.1-3.4-0.9-4.3c-1-0.9-2.6-1.3-5-1.3h-2.9l0.8-4.2c0-0.2,0-0.3-0.1-0.5
			s-0.2-0.2-0.4-0.2h-4c-0.3,0-0.5,0.2-0.5,0.4L28.7,31c-0.2-1-0.5-1.9-1.2-2.6c-1.2-1.3-3-2-5.5-2h-7.6c-0.3,0-0.5,0.2-0.5,0.4
			l-3.6,18.4c0,0.2,0,0.3,0.1,0.5c0.1,0.1,0.2,0.2,0.4,0.2h4c0.3,0,0.5-0.2,0.5-0.4l0.9-4.4h3c1.6,0,2.9-0.2,3.9-0.5
			c1.1-0.4,2-0.9,2.9-1.7c0.7-0.6,1.3-1.3,1.7-2.1l-0.7,3.7c0,0.2,0,0.3,0.1,0.5c0.1,0.1,0.2,0.2,0.4,0.2h4c0.3,0,0.5-0.2,0.5-0.4
			l2-10.1h2.7c1.2,0,1.5,0.2,1.6,0.3c0.1,0.1,0.2,0.4,0.1,1.4l-1.6,8.1c0,0.2,0,0.3,0.1,0.5S37,41,37.2,41h4.1
			C41.5,40.9,41.7,40.7,41.8,40.5z M23.4,33.4c-0.2,1.3-0.7,2.2-1.4,2.7c-0.7,0.5-1.8,0.8-3.3,0.8H17l1.3-6.6h2.3
			c1.7,0,2.4,0.4,2.6,0.7C23.5,31.4,23.6,32.3,23.4,33.4z"/>
		<path class="st2" d="M58.8,28.4c-1.2-1.3-3-2-5.5-2h-7.7c-0.3,0-0.5,0.2-0.5,0.4l-3.6,18.4c0,0.2,0,0.3,0.1,0.5
			c0.1,0.1,0.2,0.2,0.4,0.2h4c0.3,0,0.5-0.2,0.5-0.4l0.9-4.4h3c1.6,0,2.9-0.2,3.9-0.5c1.1-0.4,2-0.9,2.9-1.7
			c0.7-0.7,1.3-1.4,1.7-2.2c0.4-0.8,0.8-1.7,1-2.6C60.3,31.6,59.9,29.7,58.8,28.4z M54.6,33.4c-0.2,1.3-0.7,2.2-1.4,2.7
			c-0.7,0.5-1.8,0.8-3.3,0.8h-1.8l1.3-6.6h2.3c1.7,0,2.4,0.4,2.6,0.7C54.8,31.4,54.8,32.3,54.6,33.4z"/>
	</g>
	<g>
		<path class="st3" d="M20.5,29.8c1.5,0,2.5,0.3,3,0.8c0.5,0.6,0.6,1.5,0.4,2.9c-0.3,1.4-0.8,2.4-1.6,3c-0.8,0.6-2,0.9-3.6,0.9h-2.4
			l1.5-7.7H20.5z M10.8,45.3h4l1-4.9h3.4c1.5,0,2.7-0.2,3.7-0.5c1-0.3,1.9-0.8,2.7-1.6c0.7-0.6,1.2-1.3,1.6-2
			c0.4-0.7,0.7-1.6,0.9-2.4c0.4-2.2,0.1-3.9-1-5.1c-1.1-1.2-2.7-1.8-5.1-1.8h-7.7L10.8,45.3z"/>
		<path class="st3" d="M31,22h4l-1,4.9h3.5c2.2,0,3.8,0.4,4.6,1.2c0.8,0.8,1.1,2,0.8,3.8l-1.7,8.5h-4l1.6-8.1
			c0.2-0.9,0.1-1.6-0.2-1.9s-1-0.5-2-0.5h-3.2l-2,10.5h-4L31,22z"/>
		<path class="st3" d="M51.7,29.8c1.5,0,2.5,0.3,3,0.8c0.5,0.6,0.6,1.5,0.4,2.9c-0.3,1.4-0.8,2.4-1.6,3c-0.8,0.6-2,0.9-3.6,0.9h-2.4
			l1.5-7.7H51.7z M42,45.3h4l1-4.9h3.4c1.5,0,2.7-0.2,3.7-0.5c1-0.3,1.9-0.8,2.7-1.6c0.7-0.6,1.2-1.3,1.6-2c0.4-0.7,0.7-1.6,0.9-2.4
			c0.4-2.2,0.1-3.9-1-5.1s-2.7-1.8-5.1-1.8h-7.7L42,45.3z"/>
	</g>
</g>
</svg>
